<?xml version="1.0" encoding="UTF-8" standalone="no"?>
<svg
   xmlns:dc="http://purl.org/dc/elements/1.1/"
   xmlns:cc="http://creativecommons.org/ns#"
   xmlns:rdf="http://www.w3.org/1999/02/22-rdf-syntax-ns#"
   xmlns:svg="http://www.w3.org/2000/svg"
   xmlns="http://www.w3.org/2000/svg"
   xmlns:sodipodi="http://sodipodi.sourceforge.net/DTD/sodipodi-0.dtd"
   xmlns:inkscape="http://www.inkscape.org/namespaces/inkscape"
   inkscape:version="1.0 (4035a4fb49, 2020-05-01)"
   sodipodi:docname="pinterest.svg"
   xml:space="preserve"
   style="enable-background:new 0 0 511.977 511.977;"
   viewBox="0 0 511.977 511.977"
   y="0px"
   x="0px"
   id="Capa_1"
   version="1.1"><metadata
   id="metadata202"><rdf:RDF><cc:Work
       rdf:about=""><dc:format>image/svg+xml</dc:format><dc:type
         rdf:resource="http://purl.org/dc/dcmitype/StillImage" /><dc:title></dc:title></cc:Work></rdf:RDF></metadata><defs
   id="defs200" /><sodipodi:namedview
   inkscape:current-layer="Capa_1"
   inkscape:window-maximized="0"
   inkscape:window-y="0"
   inkscape:window-x="0"
   inkscape:cy="255.98849"
   inkscape:cx="255.98849"
   inkscape:zoom="1.6602309"
   showgrid="false"
   id="namedview198"
   inkscape:window-height="480"
   inkscape:window-width="708"
   inkscape:pageshadow="2"
   inkscape:pageopacity="0"
   guidetolerance="10"
   gridtolerance="10"
   objecttolerance="10"
   borderopacity="1"
   bordercolor="#666666"
   pagecolor="#ffffff" />
<g
   style="fill:#ffffff"
   id="g165">
	<g
   style="fill:#ffffff"
   id="g163">
		<path
   style="fill:#ffffff"
   id="path161"
   d="M 262.948,0 C 122.628,0 48.004,89.92 48.004,187.968 c 0,45.472 25.408,102.176 66.08,120.16 6.176,2.784 9.536,1.6 10.912,-4.128 1.216,-4.352 6.56,-25.312 9.152,-35.2 0.8,-3.168 0.384,-5.92 -2.176,-8.896 -13.504,-15.616 -24.224,-44.064 -24.224,-70.752 0,-68.384 54.368,-134.784 146.88,-134.784 80,0 135.968,51.968 135.968,126.304 0,84 -44.448,142.112 -102.208,142.112 -31.968,0 -55.776,-25.088 -48.224,-56.128 9.12,-36.96 27.008,-76.704 27.008,-103.36 0,-23.904 -13.504,-43.68 -41.088,-43.68 -32.544,0 -58.944,32.224 -58.944,75.488 0,27.488 9.728,46.048 9.728,46.048 0,0 -32.192,130.048 -38.176,154.336 -10.112,41.12 1.376,107.712 2.368,113.44 0.608,3.168 4.16,4.16 6.144,1.568 3.168,-4.16 42.08,-59.68 52.992,-99.808 3.968,-14.624 20.256,-73.92 20.256,-73.92 10.72,19.36 41.664,35.584 74.624,35.584 98.048,0 168.896,-86.176 168.896,-193.12 C 463.62,76.704 375.876,0 262.948,0 Z" />
	</g>
</g>
<g
   id="g167">
</g>
<g
   id="g169">
</g>
<g
   id="g171">
</g>
<g
   id="g173">
</g>
<g
   id="g175">
</g>
<g
   id="g177">
</g>
<g
   id="g179">
</g>
<g
   id="g181">
</g>
<g
   id="g183">
</g>
<g
   id="g185">
</g>
<g
   id="g187">
</g>
<g
   id="g189">
</g>
<g
   id="g191">
</g>
<g
   id="g193">
</g>
<g
   id="g195">
</g>
</svg>
